<svg width="45" height="45" viewBox="0 0 45 45" fill="none" xmlns="http://www.w3.org/2000/svg">
<rect width="45" height="45" rx="22.5" fill="#F3F3F3"/>
<path d="M27.396 16.5773L26.489 18.8392C26.2321 19.4799 26.7066 20.1761 27.4001 20.1761H31.654C33.2046 20.1761 34.3282 21.6461 33.9131 23.1319L32.11 29.5852C31.5461 31.6033 29.6983 33 27.592 33H22.134C21.2781 33 20.4386 32.7671 19.7064 32.3265L18.2439 31.4464C17.324 30.8928 16.6386 30.0524 16.2753 29.0796V30.6685C16.2753 31.3124 15.8459 31.8343 15.3162 31.8343H11.9591C11.4294 31.8343 11 31.3124 11 30.6685V19.0104C11 18.3665 11.4294 17.8446 11.9591 17.8446H15.3162C15.8459 17.8446 16.2753 18.3665 16.2753 19.0104V20.8399C16.5763 20.0338 17.0994 19.3156 17.8001 18.7759L19.0094 17.8444L23.4515 13.5682C23.7144 13.3152 24.0429 13.1401 24.4003 13.0625C26.4545 12.6167 28.1748 14.6351 27.396 16.5773Z" fill="#363538"/>
</svg>
