<svg width="23" height="20" viewBox="0 0 23 20" fill="none" xmlns="http://www.w3.org/2000/svg">
<path d="M7.78408 0H4.62657C3.72321 0 2.89738 0.517162 2.49338 1.33587L0 6.38879L4.96717 6.99276L7.78408 0Z" fill="#FFE03C"/>
<path d="M0.385889 8.26119L7.71777 17.4065L4.86955 8.80636L0.385889 8.26119Z" fill="#FFE03C"/>
<path d="M12.5937 19.8279C11.884 20.0574 11.1162 20.0574 10.4065 19.8279L6.81219 8.97507C9.9344 9.17146 13.0656 9.17146 16.1878 8.97507L12.5937 19.8279Z" fill="#FFE03C"/>
<path d="M15.2825 17.4062L22.6141 8.26119L18.1305 8.80636L15.2825 17.4062Z" fill="#FFE03C"/>
<path d="M23 6.38879L20.5066 1.33588C20.1026 0.517163 19.2768 0 18.3734 0H15.2161L18.0329 6.99276L23 6.38879Z" fill="#FFE03C"/>
<path d="M13.2841 0H9.71609L6.83169 7.16029C9.94079 7.35977 13.0592 7.35977 16.1683 7.16029L13.2841 0Z" fill="#FFE03C"/>
</svg>
