<svg width="21" height="23" viewBox="0 0 21 23" fill="none" xmlns="http://www.w3.org/2000/svg">
<path d="M4.58128 1.73703C5.05495 1.24656 5.07795 0.444071 4.48344 0.203866C4.12347 0.0584214 3.73523 -0.0104193 3.34092 0.00127511C2.9466 0.0129695 2.55392 0.10497 2.1853 0.272024C1.81668 0.439078 1.47933 0.677913 1.19252 0.974893C0.905712 1.27187 0.675056 1.62118 0.513724 2.00288C0.352391 2.38457 0.263542 2.79118 0.252248 3.19948C0.240954 3.60777 0.307437 4.00977 0.447901 4.38252C0.67988 4.99811 1.45488 4.97429 1.92855 4.48382L4.58128 1.73703Z" fill="#FFE03C"/>
<path fill-rule="evenodd" clip-rule="evenodd" d="M10.5 23C16.299 23 21 18.1323 21 12.1277C21 6.12302 16.299 1.25531 10.5 1.25531C4.70101 1.25531 0 6.12302 0 12.1277C0 18.1323 4.70101 23 10.5 23ZM11.375 6.08746C11.375 5.58707 10.9832 5.18143 10.5 5.18143C10.0168 5.18143 9.625 5.58707 9.625 6.08746V13.3357C9.625 13.8361 10.0168 14.2417 10.5 14.2417H15.1667C15.6499 14.2417 16.0417 13.8361 16.0417 13.3357C16.0417 12.8353 15.6499 12.4297 15.1667 12.4297H11.375V6.08746Z" fill="#FFE03C"/>
<path d="M16.5216 0.203866C15.9271 0.444071 15.9501 1.24656 16.4238 1.73703L19.0765 4.48382C19.5502 4.97429 20.3252 4.99811 20.5572 4.38252C20.6976 4.00977 20.7641 3.60777 20.7528 3.19948C20.7415 2.79118 20.6527 2.38457 20.4913 2.00288C20.33 1.62118 20.0993 1.27187 19.8125 0.974893C19.5257 0.677913 19.1884 0.439078 18.8198 0.272024C18.4511 0.10497 18.0585 0.0129695 17.6641 0.00127511C17.2698 -0.0104193 16.8816 0.0584214 16.5216 0.203866Z" fill="#FFE03C"/>
</svg>
