<svg width="21" height="20" viewBox="0 0 21 20" fill="none" xmlns="http://www.w3.org/2000/svg">
<path d="M2.94209 19.0233C2.45864 16.5949 1.67713 12.8313 0.941152 9.99703C5.13771 7.85658 9.58872 4.5514 11.3022 3.01445L11.2982 3.00991C11.5799 2.7698 11.8258 2.44292 12.0893 2.09284C12.901 1.01408 13.8786 -0.285024 16.5764 0.0552621C21.5683 0.684916 21.7513 6.87873 19.98 10.1298C18.3749 13.076 17.4988 16.6899 17.0393 19.2895C16.8981 20.0883 15.5712 20.2718 15.2255 19.5391C13.9319 16.7971 11.9007 13.2781 9.99629 13.2781C7.94937 13.2781 5.75599 16.8014 4.48941 19.225C4.14415 19.8856 3.08786 19.7556 2.94209 19.0233Z" fill="#FFE03C"/>
<path d="M7.08006 1.61605C7.53478 2.09404 8.05298 2.63875 9.20208 3.13276C7.15871 4.74935 3.80999 7.09328 0.604671 8.75688C-0.592798 4.43227 -0.186231 0.311131 3.41621 0.311138C5.83868 0.311143 6.38528 0.885719 7.08006 1.61605Z" fill="#FFE03C"/>
</svg>
