<svg width="21" height="24" viewBox="0 0 21 24" fill="none" xmlns="http://www.w3.org/2000/svg">
<path d="M6.19386 2.88199L6.34887 2.97713C6.6985 3.19172 7.68542 3.54616 9.04393 3.65001C10.3615 3.75074 11.9382 3.60743 13.4878 2.93893C13.7267 2.80083 14.0085 2.64924 14.3207 2.49521L15.1338 0L12.6638 1.26316L10.1942 0L7.72467 1.26316L5.2547 0L6.19386 2.88199Z" fill="#FFE03C"/>
<path d="M9.30502 11.712C8.83992 11.8353 8.49647 12.2676 8.49647 12.782C8.49647 13.2963 8.83992 13.7286 9.30502 13.8519V11.712Z" fill="#FFE03C"/>
<path d="M10.8486 17.6761C11.4284 17.6562 11.8924 17.1693 11.8924 16.5714C11.8924 15.9736 11.4284 15.4866 10.8486 15.4668V17.6761Z" fill="#FFE03C"/>
<path fill-rule="evenodd" clip-rule="evenodd" d="M14.9452 4.29228C14.7269 4.40393 14.5289 4.51248 14.3586 4.61204C14.328 4.62995 14.2963 4.64604 14.2639 4.66026C12.3706 5.49022 10.4668 5.6588 8.90588 5.53948C7.37272 5.42227 6.07518 5.0188 5.39581 4.60182L5.16365 4.45933C-1.76597 8.78153 -3.19112 23.4047 10.1942 24C23.7578 23.3968 22.1139 8.38979 14.9452 4.29228ZM10.0768 9.31579C10.5031 9.31579 10.8486 9.66925 10.8486 10.1053V10.1136C12.3024 10.2678 13.436 11.5248 13.436 13.0526C13.436 13.4886 13.0905 13.8421 12.6642 13.8421C12.238 13.8421 11.8924 13.4886 11.8924 13.0526C11.8924 12.3987 11.4464 11.8513 10.8486 11.7114V13.8875C12.281 13.9076 13.436 15.1015 13.436 16.5714C13.436 18.0413 12.2809 19.2353 10.8486 19.2554C10.8448 19.6881 10.5007 20.0376 10.0768 20.0376C9.65057 20.0376 9.30502 19.6841 9.30502 19.2481V19.2048C7.96601 18.9475 6.95286 17.7451 6.95286 16.3008C6.95286 15.8647 7.29841 15.5113 7.72467 15.5113C8.15092 15.5113 8.49647 15.8647 8.49647 16.3008C8.49647 16.8656 8.82916 17.3509 9.30502 17.5629V15.4519C7.98355 15.3127 6.95286 14.1705 6.95286 12.782C6.95286 11.3934 7.98355 10.2512 9.30502 10.112V10.1053C9.30502 9.66925 9.65057 9.31579 10.0768 9.31579Z" fill="#FFE03C"/>
<path d="M16.0919 3.76812C16.8095 3.47794 17.56 3.24664 18.2205 3.16126C18.9098 3.07216 19.3375 3.16286 19.56 3.31459C19.9856 3.60481 20.5606 3.48718 20.8444 3.05183C21.1281 2.61649 21.0131 2.0283 20.5875 1.73807C19.809 1.20717 18.8318 1.17243 17.9883 1.28147C17.1161 1.39422 16.2059 1.68461 15.4109 2.00608C14.9352 2.19844 14.7021 2.74882 14.8901 3.23539C15.0782 3.72197 15.6162 3.96048 16.0919 3.76812Z" fill="#FFE03C"/>
</svg>
