<svg width="23" height="24" viewBox="0 0 23 24" fill="none" xmlns="http://www.w3.org/2000/svg">
<path d="M6.02694 0.81775C5.61994 -0.272583 4.06427 -0.272584 3.65727 0.817749L3.09388 2.32706C2.96592 2.66985 2.69327 2.94013 2.34747 3.06697L0.824923 3.62547C-0.274974 4.02893 -0.274975 5.57107 0.824922 5.97453L2.34747 6.53303C2.69327 6.65987 2.96592 6.93015 3.09388 7.27294L3.65727 8.78225C4.06427 9.87258 5.61994 9.87259 6.02694 8.78225L6.59033 7.27294C6.71829 6.93015 6.99094 6.65987 7.33674 6.53303L8.85929 5.97453C9.95919 5.57107 9.95918 4.02893 8.85929 3.62547L7.33674 3.06697C6.99094 2.94013 6.71829 2.66985 6.59033 2.32706L6.02694 0.81775Z" fill="#FFE03C"/>
<path d="M16.1426 7.53328C15.3795 5.48891 12.4626 5.48891 11.6995 7.53328L10.6431 10.3632C10.4032 11.006 9.89199 11.5127 9.24361 11.7506L6.38884 12.7978C4.32653 13.5542 4.32653 16.4458 6.38884 17.2023L9.24361 18.2494C9.89199 18.4873 10.4032 18.994 10.6431 19.6368L11.6995 22.4667C12.4626 24.5111 15.3795 24.5111 16.1426 22.4667L17.199 19.6368C17.4389 18.994 17.9501 18.4873 18.5985 18.2494L21.4533 17.2023C23.5156 16.4458 23.5156 13.5542 21.4533 12.7978L18.5985 11.7506C17.9501 11.5127 17.4389 11.006 17.199 10.3632L16.1426 7.53328Z" fill="#FFE03C"/>
</svg>
