<svg width="40" height="40" viewBox="0 0 40 40" fill="none" xmlns="http://www.w3.org/2000/svg">
<rect width="40" height="40" rx="20" fill="white"/>
<path fill-rule="evenodd" clip-rule="evenodd" d="M23 20C23 21.6569 21.6569 23 20 23C18.3431 23 17 21.6569 17 20C17 18.3431 18.3431 17 20 17C21.6569 17 23 18.3431 23 20ZM21.5 20C21.5 20.8284 20.8284 21.5 20 21.5C19.1716 21.5 18.5 20.8284 18.5 20C18.5 19.1716 19.1716 18.5 20 18.5C20.8284 18.5 21.5 19.1716 21.5 20Z" fill="#FFE03C"/>
<path fill-rule="evenodd" clip-rule="evenodd" d="M26 12H14C11.7909 12 10 13.7909 10 16V24C10 26.2091 11.7909 28 14 28H26C28.2091 28 30 26.2091 30 24V16C30 13.7909 28.2091 12 26 12ZM25.25 13.5H14.75V14C14.75 15.5188 13.5188 16.75 12 16.75H11.5V23.25H12C13.5188 23.25 14.75 24.4812 14.75 26V26.5H25.25V26C25.25 24.4812 26.4812 23.25 28 23.25H28.5V16.75H28C26.4812 16.75 25.25 15.5188 25.25 14V13.5ZM11.6145 15.25C11.8587 14.4725 12.4725 13.8587 13.25 13.6145V14C13.25 14.6904 12.6904 15.25 12 15.25H11.6145ZM13.25 26.3855V26C13.25 25.3096 12.6904 24.75 12 24.75H11.6145C11.8587 25.5275 12.4725 26.1413 13.25 26.3855ZM28.3855 24.75C28.1413 25.5275 27.5275 26.1413 26.75 26.3855V26C26.75 25.3096 27.3096 24.75 28 24.75H28.3855ZM28.3855 15.25C28.1413 14.4725 27.5275 13.8587 26.75 13.6145V14C26.75 14.6904 27.3096 15.25 28 15.25H28.3855Z" fill="#FFE03C"/>
</svg>
