<svg width="40" height="40" viewBox="0 0 40 40" fill="none" xmlns="http://www.w3.org/2000/svg">
<rect width="40" height="40" rx="20" fill="#FFE03C"/>
<path fill-rule="evenodd" clip-rule="evenodd" d="M14.8147 10.1834C15.0591 9.98467 15.4072 9.94353 15.6966 10.0792L17.4723 10.9115L19.2477 10.0792C19.4729 9.97361 19.7381 9.97361 19.9633 10.0792L21.7387 10.9115L23.5144 10.0792C23.8038 9.94353 24.1519 9.98467 24.3963 10.1834C24.6408 10.3822 24.7334 10.6994 24.6311 10.9872L24.1567 12.3214C24.5066 12.1932 24.8739 12.0746 25.2436 11.9777C25.7921 11.834 26.3758 11.7301 26.933 11.725C27.4838 11.7201 28.0795 11.8114 28.5828 12.126C28.9504 12.3557 29.0497 12.8214 28.8046 13.166C28.5596 13.5107 28.0629 13.6038 27.6952 13.374C27.5586 13.2886 27.323 13.2216 26.9483 13.225C26.5799 13.2283 26.1436 13.2994 25.6743 13.4223C25.3083 13.5182 24.9405 13.6408 24.5934 13.773C27.5553 15.5886 29.328 19.184 29.205 22.5259C29.1326 24.4931 28.4056 26.4356 26.8211 27.921C25.2336 29.4093 22.8611 30.368 19.6403 30.4993C19.6171 30.5002 19.5939 30.5002 19.5708 30.4993C16.3499 30.368 13.9774 29.4093 12.3899 27.921C10.8054 26.4356 10.0784 24.4931 10.006 22.5259C9.87236 18.8934 11.9784 14.9614 15.4168 13.3411L14.5799 10.9872C14.4776 10.6994 14.5702 10.3822 14.8147 10.1834ZM16.3681 14.5774C13.4616 15.8124 11.4852 19.2174 11.6051 22.4742C11.666 24.1319 12.2723 25.6895 13.5213 26.8603C14.7621 28.0236 16.7122 28.8752 19.6055 28.9993C22.4988 28.8752 24.4489 28.0236 25.6898 26.8603C26.9387 25.6895 27.545 24.1319 27.606 22.4742C27.7263 19.2027 25.7315 15.7817 22.8036 14.5609C20.0177 15.577 17.5989 15.113 16.3681 14.5774ZM22.1633 13.1846C19.8419 14.0118 17.9089 13.589 17.0626 13.2263L16.7085 12.2305L17.1146 12.4208C17.3398 12.5264 17.6049 12.5264 17.8301 12.4208L19.6055 11.5885L21.3809 12.4208C21.6061 12.5264 21.8712 12.5264 22.0964 12.4208L22.5025 12.2305L22.1633 13.1846Z" fill="white"/>
<path fill-rule="evenodd" clip-rule="evenodd" d="M19.5039 18.125C19.8721 18.125 20.1706 18.4048 20.1706 18.75V18.7566C21.4263 18.8787 22.4055 19.8738 22.4055 21.0833C22.4055 21.4285 22.107 21.7083 21.7388 21.7083C21.3706 21.7083 21.0722 21.4285 21.0722 21.0833C21.0722 20.5657 20.6869 20.1323 20.1706 20.0215V21.7443C21.4078 21.7602 22.4055 22.7054 22.4055 23.8691C22.4055 25.0327 21.4078 25.9779 20.1706 25.9939C20.1673 26.3364 19.8701 26.6131 19.5039 26.6131C19.1357 26.6131 18.8372 26.3333 18.8372 25.9881V25.9538C17.6806 25.7501 16.8055 24.7982 16.8055 23.6548C16.8055 23.3096 17.104 23.0298 17.4722 23.0298C17.8404 23.0298 18.1388 23.3096 18.1388 23.6548C18.1388 24.1019 18.4262 24.4861 18.8372 24.6539V22.9828C17.6958 22.8726 16.8055 21.9683 16.8055 20.8691C16.8055 19.7698 17.6958 18.8655 18.8372 18.7553V18.75C18.8372 18.4048 19.1357 18.125 19.5039 18.125ZM18.8372 20.022C18.4355 20.1197 18.1388 20.4619 18.1388 20.8691C18.1388 21.2762 18.4355 21.6185 18.8372 21.7161V20.022ZM20.1706 22.9946V24.7436C20.6713 24.7279 21.0722 24.3423 21.0722 23.8691C21.0722 23.3958 20.6713 23.0102 20.1706 22.9946Z" fill="white"/>
</svg>
