<svg width="40" height="40" viewBox="0 0 40 40" fill="none" xmlns="http://www.w3.org/2000/svg">
<rect width="40" height="40" rx="20" fill="#FFE03C"/>
<path d="M16.7998 20C16.358 20 15.9998 20.3358 15.9998 20.75C15.9998 21.1642 16.358 21.5 16.7998 21.5H25.3331C25.775 21.5 26.1331 21.1642 26.1331 20.75C26.1331 20.3358 25.775 20 25.3331 20H16.7998Z" fill="white"/>
<path d="M15.9998 16.75C15.9998 16.3358 16.358 16 16.7998 16H21.0665C21.5083 16 21.8665 16.3358 21.8665 16.75C21.8665 17.1642 21.5083 17.5 21.0665 17.5H16.7998C16.358 17.5 15.9998 17.1642 15.9998 16.75Z" fill="white"/>
<path d="M16.7998 24C16.358 24 15.9998 24.3358 15.9998 24.75C15.9998 25.1642 16.358 25.5 16.7998 25.5H25.3331C25.775 25.5 26.1331 25.1642 26.1331 24.75C26.1331 24.3358 25.775 24 25.3331 24H16.7998Z" fill="white"/>
<path fill-rule="evenodd" clip-rule="evenodd" d="M17.8665 10C15.0682 10 12.7998 12.1266 12.7998 14.75V24.75C12.7998 27.3734 15.0682 29.5 17.8665 29.5H24.2665C27.0647 29.5 29.3331 27.3734 29.3331 24.75V16.4069C29.3331 15.1471 28.7993 13.9389 27.8491 13.0481L26.0818 11.3912C25.1316 10.5004 23.8429 10 22.4992 10H17.8665ZM14.3998 14.75C14.3998 12.9551 15.9519 11.5 17.8665 11.5H22.4992C23.4186 11.5 24.3003 11.8424 24.9505 12.4519L26.7178 14.1088C27.3679 14.7183 27.7331 15.5449 27.7331 16.4069V24.75C27.7331 26.5449 26.1811 28 24.2665 28H17.8665C15.9519 28 14.3998 26.5449 14.3998 24.75V14.75Z" fill="white"/>
</svg>
