<svg width="40" height="40" viewBox="0 0 40 40" fill="none" xmlns="http://www.w3.org/2000/svg">
<rect width="40" height="40" rx="20" fill="#FFE03C"/>
<path d="M14.9113 10.0929C14.433 9.87601 13.8512 10.0518 13.6121 10.4856C13.4015 10.8675 13.5266 11.322 13.8859 11.5733C13.1908 11.8885 12.4176 12.3329 11.7391 12.9482C10.8165 13.7848 10.2423 14.7803 9.9007 15.5405C9.72802 15.9248 9.60987 16.2602 9.53417 16.5022C9.49624 16.6235 9.46873 16.7221 9.45021 16.7927C9.44094 16.828 9.4339 16.8563 9.42892 16.877L9.42296 16.9023L9.42109 16.9105L9.42043 16.9134L9.42016 16.9146C9.42016 16.9146 9.41994 16.9156 10.3696 17.0878L9.42016 16.9146C9.31527 17.3902 9.65518 17.8538 10.1796 17.9489C10.7034 18.0439 11.2129 17.7365 11.3187 17.262L11.3212 17.2515C11.3237 17.2411 11.3281 17.2236 11.3344 17.1995C11.3471 17.1512 11.3677 17.0768 11.3975 16.9814C11.4574 16.79 11.5532 16.5174 11.6944 16.2031C11.9806 15.5662 12.4335 14.8023 13.1087 14.1901C13.563 13.7781 14.0932 13.4573 14.6054 13.2125C14.6122 13.5429 14.8255 13.8559 15.1806 13.999C15.6693 14.196 16.2416 13.9964 16.4589 13.5532L17.1893 12.0629C17.3996 11.6339 17.2005 11.1308 16.7374 10.9208L14.9113 10.0929Z" fill="white"/>
<path d="M26.3309 31.9071C26.8093 32.124 27.391 31.9482 27.6302 31.5144C27.8407 31.1325 27.7157 30.678 27.3563 30.4267C28.0514 30.1115 28.8246 29.6671 29.5031 29.0518C30.4258 28.2152 31 27.2197 31.3415 26.4595C31.5142 26.0752 31.6324 25.7399 31.7081 25.4978C31.746 25.3765 31.7735 25.2779 31.792 25.2073C31.8013 25.172 31.8083 25.1437 31.8133 25.123L31.8193 25.0977L31.8211 25.0895L31.8218 25.0866L31.8221 25.0854C31.8221 25.0854 31.8223 25.0844 30.8727 24.9122L31.8221 25.0854C31.927 24.6098 31.5871 24.1462 31.0626 24.0511C30.5388 23.9561 30.0293 24.2635 29.9235 24.738L29.9231 24.7395L29.921 24.7485L29.9165 24.7666L29.9078 24.8005C29.8952 24.8488 29.8745 24.9232 29.8447 25.0186C29.7849 25.21 29.689 25.4826 29.5478 25.7969C29.2617 26.4338 28.8087 27.1977 28.1335 27.8099C27.6792 28.2219 27.1491 28.5427 26.6368 28.7875C26.63 28.4571 26.4167 28.1441 26.0616 28.001C25.5729 27.804 25.0006 28.0036 24.7834 28.4468L24.0529 29.9371C23.8427 30.3661 24.0417 30.8692 24.5048 31.0792L26.3309 31.9071Z" fill="white"/>
<path fill-rule="evenodd" clip-rule="evenodd" d="M16.7474 31.5401C21.0262 31.5401 24.4948 28.3948 24.4948 24.5148C24.4948 20.6349 21.0262 17.4896 16.7474 17.4896C12.4686 17.4896 9 20.6349 9 24.5148C9 28.3948 12.4686 31.5401 16.7474 31.5401ZM16.7474 29.7838C19.9565 29.7838 22.558 27.4248 22.558 24.5148C22.558 21.6049 19.9565 19.2459 16.7474 19.2459C13.5383 19.2459 10.9369 21.6049 10.9369 24.5148C10.9369 27.4248 13.5383 29.7838 16.7474 29.7838Z" fill="white"/>
<path d="M25.7859 22.7585C28.995 22.7585 31.5965 20.3996 31.5965 17.4896C31.5965 14.5797 28.995 12.2207 25.7859 12.2207C22.926 12.2207 20.5487 14.0942 20.0652 16.5616C19.4521 16.4113 18.8089 16.3275 18.1455 16.3194C18.7599 12.9965 21.9468 10.4644 25.7859 10.4644C30.0647 10.4644 33.5333 13.6097 33.5333 17.4896C33.5333 21.3695 30.0647 24.5148 25.7859 24.5148C25.7502 24.5148 25.7145 24.5146 25.6789 24.5142C25.7493 24.1336 25.7859 23.7427 25.7859 23.344C25.7859 23.1468 25.777 22.9515 25.7594 22.7585L25.7859 22.7585Z" fill="white"/>
</svg>
