<svg width="34" height="34" viewBox="0 0 34 34" fill="none" xmlns="http://www.w3.org/2000/svg">
<circle cx="16.9978" cy="16.9978" r="16.9978" fill="#FFE03C"/>
<path d="M24.2735 17.3863C23.5929 20.1416 19.6107 22.5839 18.0555 23.4455C17.6671 23.6607 17.2002 23.6607 16.8118 23.4455C15.2566 22.5839 11.2745 20.1416 10.5938 17.3863C9.97912 14.8984 11.5391 12.3133 14.1806 12.2762C14.2351 12.2754 14.2905 12.275 14.3466 12.275C15.41 12.275 16.3594 12.7827 16.9159 13.1581C17.22 13.3632 17.6473 13.3632 17.9514 13.1581C18.5079 12.7827 19.4573 12.275 20.5207 12.275C20.5768 12.275 20.6322 12.2754 20.6867 12.2762C23.3283 12.3133 24.8882 14.8984 24.2735 17.3863Z" fill="white"/>
</svg>
