<svg width="34" height="34" viewBox="0 0 34 34" fill="none" xmlns="http://www.w3.org/2000/svg">
<circle cx="17" cy="17" r="17" fill="#FFE03C"/>
<g clip-path="url(#clip0_324_5626)">
<path fill-rule="evenodd" clip-rule="evenodd" d="M26.0001 16.6984C26.0001 11.8999 22.2017 8.00439 17.5 8.00439C12.8086 8.00439 9 11.8999 9 16.6984C9 19.1029 9.95471 21.2765 11.4946 22.841C11.6178 22.967 11.7923 23.051 11.9771 23.051C12.3569 23.051 12.6649 22.736 12.6649 22.3475C12.6649 22.148 12.593 21.9695 12.4596 21.833C11.1763 20.5204 10.3859 18.6934 10.3859 16.6984C10.3859 12.6874 13.5683 9.4114 17.4898 9.4114C21.4113 9.4114 24.6142 12.6769 24.6142 16.6984C24.6142 18.7144 23.8237 20.5309 22.5303 21.854L16.5248 27.9965L17.5 29.0045L23.526 22.841C25.0556 21.2765 26.0001 19.1029 26.0001 16.6984Z" fill="#B5208E"/>
<path fill-rule="evenodd" clip-rule="evenodd" d="M21.4423 18.3784L19.3173 12.8973L17.5311 16.0999L15.7346 12.8973L13.6199 18.3784H13.0039V19.1974H16.1966V18.3784H15.7243L16.1863 17.0134L17.5311 19.2604L18.8759 17.0134L19.3379 18.3784H18.8554V19.1974H22.0686V18.3784H21.4423Z" fill="#B5208E"/>
</g>
<defs>
<clipPath id="clip0_324_5626">
<rect width="17.0001" height="21.0001" fill="white" transform="translate(9 8.00439)"/>
</clipPath>
</defs>
</svg>
