<svg width="127" height="38" viewBox="0 0 127 38" fill="none" xmlns="http://www.w3.org/2000/svg">
<path d="M48.5289 13.0091L49.1455 12.0568H57.6137L57.9015 13.0091H48.5289ZM68.6306 25.8029C68.7676 25.8029 68.8361 25.8857 68.8361 26.0514C68.8361 26.217 68.7676 26.2998 68.6306 26.2998C67.8358 26.2998 67.0137 26.2722 66.1641 26.217C65.342 26.1618 64.5335 26.1342 63.7388 26.1342C62.8618 26.1342 62.0945 26.1618 61.4367 26.217C60.8064 26.2722 60.0939 26.2998 59.2991 26.2998C59.1895 26.2998 59.1347 26.217 59.1347 26.0514C59.1347 25.8857 59.1895 25.8029 59.2991 25.8029C60.642 25.8029 61.4641 25.5959 61.7656 25.1819C62.067 24.7402 61.9163 23.8845 61.3134 22.6148L52.4752 4.10727L53.7907 2.11988L45.7747 20.8345C45.0621 22.5182 45.021 23.7741 45.6513 24.6022C46.2817 25.4027 47.4601 25.8029 49.1866 25.8029C49.3236 25.8029 49.3921 25.8857 49.3921 26.0514C49.3921 26.217 49.3236 26.2998 49.1866 26.2998C48.3645 26.2998 47.6108 26.2722 46.9257 26.217C46.2405 26.1618 45.3773 26.1342 44.3359 26.1342C43.3219 26.1342 42.4997 26.1618 41.8694 26.217C41.2665 26.2722 40.5266 26.2998 39.6496 26.2998C39.54 26.2998 39.4852 26.217 39.4852 26.0514C39.4852 25.8857 39.54 25.8029 39.6496 25.8029C40.3895 25.8029 41.0336 25.6649 41.5817 25.3889C42.1298 25.0853 42.6505 24.547 43.1438 23.7741C43.6645 23.0013 44.2263 21.8972 44.8292 20.4618L53.5851 0.132493C53.6125 0.0496848 53.7085 0.00828058 53.8729 0.00828058C54.0373 -0.0193217 54.1332 0.0220825 54.1606 0.132493L64.0265 20.6274C64.6842 21.98 65.246 23.0427 65.7119 23.8155C66.2052 24.5608 66.6848 25.0853 67.1507 25.3889C67.6166 25.6649 68.1099 25.8029 68.6306 25.8029Z" fill="black"/>
<path d="M85.0111 10.3179C85.0933 10.3179 85.1344 10.4007 85.1344 10.5663C85.1344 10.7319 85.0933 10.8147 85.0111 10.8147C84.2437 10.8147 83.586 11.1045 83.0379 11.6842C82.5172 12.2638 82.0376 13.1609 81.5991 14.3754L76.7073 27.4591C75.7207 30.1089 74.7752 32.1929 73.8709 33.7111C72.9665 35.2568 72.0347 36.3471 71.0755 36.982C70.1164 37.6168 69.0613 37.9343 67.9102 37.9343C67.2799 37.9343 66.7592 37.7825 66.3481 37.4788C65.9097 37.2028 65.6904 36.775 65.6904 36.1953C65.6904 35.6985 65.8412 35.3258 66.1426 35.0774C66.4441 34.8566 66.7866 34.7462 67.1703 34.7462C67.691 34.7462 68.0884 34.829 68.3624 34.9946C68.6365 35.1602 68.9105 35.3258 69.1846 35.4914C69.4586 35.6571 69.8149 35.7399 70.2534 35.7399C70.9111 35.7399 71.5414 35.4362 72.1443 34.829C72.7473 34.2217 73.3913 33.1866 74.0764 31.7237C74.7615 30.2884 75.5563 28.3148 76.4607 25.8029L76.4196 27.3349L69.7601 13.7544C69.1572 12.5399 68.6776 11.7532 68.3213 11.3944C67.9925 11.0079 67.5814 10.8147 67.0881 10.8147C67.0059 10.8147 66.9648 10.7319 66.9648 10.5663C66.9648 10.4007 67.0059 10.3179 67.0881 10.3179C67.554 10.3179 68.0473 10.3317 68.568 10.3593C69.0887 10.3869 69.582 10.4007 70.0478 10.4007C70.9796 10.4007 71.7881 10.3869 72.4732 10.3593C73.1857 10.3317 73.8298 10.3179 74.4053 10.3179C74.4601 10.3179 74.4875 10.4007 74.4875 10.5663C74.4875 10.7319 74.4601 10.8147 74.4053 10.8147C73.5009 10.8147 72.8432 10.9251 72.4321 11.1459C72.0484 11.3668 72.0073 11.7946 72.3088 12.4295L77.8583 23.8155L76.7073 25.7615L80.6125 14.4583C81.051 13.1885 81.051 12.2638 80.6125 11.6842C80.2015 11.1045 79.3245 10.8147 77.9817 10.8147C77.9268 10.8147 77.8994 10.7319 77.8994 10.5663C77.8994 10.4007 77.9268 10.3179 77.9817 10.3179C78.6394 10.3179 79.256 10.3317 79.8315 10.3593C80.4344 10.3869 81.2018 10.4007 82.1335 10.4007C82.7365 10.4007 83.2297 10.3869 83.6134 10.3593C84.0245 10.3317 84.4904 10.3179 85.0111 10.3179Z" fill="black"/>
<path d="M87.6683 21.9938L88.2849 11.2287L89.1071 11.353L88.4905 21.9938C88.4357 23.3463 88.6138 24.3262 89.0249 24.9334C89.4634 25.5131 90.1485 25.8029 91.0803 25.8029C91.1625 25.8029 91.2036 25.8857 91.2036 26.0514C91.2036 26.217 91.1625 26.2998 91.0803 26.2998C90.6418 26.2998 90.1759 26.286 89.6826 26.2584C89.1893 26.2308 88.6549 26.217 88.0794 26.217C87.5313 26.217 86.9832 26.2308 86.4351 26.2584C85.9144 26.286 85.4211 26.2998 84.9552 26.2998C84.873 26.2998 84.8319 26.217 84.8319 26.0514C84.8319 25.8857 84.873 25.8029 84.9552 25.8029C85.887 25.8029 86.5584 25.5131 86.9695 24.9334C87.3806 24.3262 87.6135 23.3463 87.6683 21.9938ZM106.619 25.8029C106.674 25.8029 106.701 25.8857 106.701 26.0514C106.701 26.217 106.674 26.2998 106.619 26.2998C106.071 26.2998 105.454 26.286 104.769 26.2584C104.084 26.2308 103.399 26.217 102.714 26.217C102.029 26.217 101.412 26.2308 100.864 26.2584C100.316 26.286 99.7951 26.2998 99.3018 26.2998C99.2196 26.2998 99.1785 26.217 99.1785 26.0514C99.1785 25.8857 99.2196 25.8029 99.3018 25.8029C100.179 25.8029 100.741 25.6235 100.987 25.2647C101.261 24.9058 101.357 24.133 101.275 22.9461L100.535 11.8084L101.275 10.8147L95.4377 25.0577C95.3829 25.1681 95.2733 25.2233 95.1088 25.2233C94.9444 25.2233 94.8348 25.1681 94.78 25.0577L89.1071 13.7544C88.5042 12.5123 87.9013 11.7118 87.2983 11.353C86.7228 10.9941 86.1336 10.8147 85.5307 10.8147C85.4759 10.8147 85.4485 10.7319 85.4485 10.5663C85.4485 10.4007 85.4759 10.3179 85.5307 10.3179C85.9966 10.3179 86.4214 10.3317 86.805 10.3593C87.1887 10.3593 87.5039 10.3593 87.7505 10.3593C88.1342 10.3593 88.4905 10.3593 88.8193 10.3593C89.1482 10.3317 89.3948 10.3179 89.5593 10.3179C90.0252 10.3179 90.3814 10.4559 90.6281 10.7319C90.8747 10.9803 91.231 11.5462 91.6969 12.4295L96.4243 21.911L95.1088 23.8983L100.247 11.353C100.357 11.0217 100.521 10.7733 100.741 10.6077C100.987 10.4145 101.234 10.3179 101.481 10.3179C101.645 10.3179 101.933 10.3317 102.344 10.3593C102.755 10.3593 103.18 10.3593 103.618 10.3593C104.166 10.3593 104.605 10.3593 104.934 10.3593C105.262 10.3317 105.619 10.3179 106.002 10.3179C106.057 10.3179 106.085 10.4007 106.085 10.5663C106.085 10.7319 106.057 10.8147 106.002 10.8147C105.098 10.8147 104.399 10.9803 103.906 11.3116C103.44 11.6428 103.248 12.3881 103.33 13.5474L104.07 22.9461C104.153 23.7465 104.248 24.3538 104.358 24.7678C104.468 25.1819 104.687 25.4579 105.016 25.5959C105.372 25.7339 105.906 25.8029 106.619 25.8029Z" fill="black"/>
<path d="M111.895 24.478L111.278 23.8569L122.459 12.5951L123.076 13.2161L111.895 24.478ZM110.497 22.9461V13.6716C110.497 12.4571 110.346 11.6842 110.045 11.353C109.743 10.9941 109.072 10.8147 108.03 10.8147C107.948 10.8147 107.907 10.7319 107.907 10.5663C107.907 10.4007 107.948 10.3179 108.03 10.3179C108.551 10.3179 109.154 10.3317 109.839 10.3593C110.524 10.3869 111.223 10.4007 111.936 10.4007C112.621 10.4007 113.292 10.3869 113.95 10.3593C114.635 10.3317 115.238 10.3179 115.759 10.3179C115.814 10.3179 115.841 10.4007 115.841 10.5663C115.841 10.7319 115.814 10.8147 115.759 10.8147C114.69 10.8147 114.005 11.0079 113.703 11.3944C113.429 11.7808 113.292 12.5675 113.292 13.7544V22.9461C113.292 24.133 113.429 24.9058 113.703 25.2647C114.005 25.6235 114.69 25.8029 115.759 25.8029C115.814 25.8029 115.841 25.8857 115.841 26.0514C115.841 26.217 115.814 26.2998 115.759 26.2998C115.211 26.2998 114.608 26.286 113.95 26.2584C113.292 26.2308 112.621 26.217 111.936 26.217C111.223 26.217 110.524 26.2308 109.839 26.2584C109.154 26.286 108.537 26.2998 107.989 26.2998C107.907 26.2998 107.866 26.217 107.866 26.0514C107.866 25.8857 107.907 25.8029 107.989 25.8029C109.058 25.8029 109.743 25.6235 110.045 25.2647C110.346 24.9058 110.497 24.133 110.497 22.9461ZM121.555 22.9461V13.6716C121.555 12.4571 121.404 11.6842 121.103 11.353C120.801 10.9941 120.13 10.8147 119.088 10.8147C119.006 10.8147 118.965 10.7319 118.965 10.5663C118.965 10.4007 119.006 10.3179 119.088 10.3179C119.609 10.3179 120.212 10.3317 120.897 10.3593C121.582 10.3869 122.281 10.4007 122.994 10.4007C123.679 10.4007 124.35 10.3869 125.008 10.3593C125.693 10.3317 126.296 10.3179 126.817 10.3179C126.872 10.3179 126.899 10.4007 126.899 10.5663C126.899 10.7319 126.872 10.8147 126.817 10.8147C125.748 10.8147 125.063 11.0079 124.761 11.3944C124.487 11.7808 124.35 12.5675 124.35 13.7544V22.9461C124.35 24.133 124.487 24.9058 124.761 25.2647C125.063 25.6235 125.748 25.8029 126.817 25.8029C126.872 25.8029 126.899 25.8857 126.899 26.0514C126.899 26.217 126.872 26.2998 126.817 26.2998C126.269 26.2998 125.666 26.286 125.008 26.2584C124.35 26.2308 123.679 26.217 122.994 26.217C122.281 26.217 121.569 26.2308 120.856 26.2584C120.171 26.286 119.568 26.2998 119.047 26.2998C118.965 26.2998 118.924 26.217 118.924 26.0514C118.924 25.8857 118.965 25.8029 119.047 25.8029C120.116 25.8029 120.801 25.6235 121.103 25.2647C121.404 24.9058 121.555 24.133 121.555 22.9461Z" fill="black"/>
<path d="M16.7941 0.895001L17.6018 6.01877e-05H8.77246L0.000198364 9.63147H8.90318L16.7941 0.895001ZM11.0168 9.63213H27.6924L23.159 4.61104L19.3556 0.399023L13.6079 6.76255L11.0168 9.63213ZM0.106887 11.1579L16.6855 27.7701L8.75735 11.1579H0.106887ZM28.1946 11.1567H26.7498L20.6752 11.1579H10.5145L19.3026 29.5704L19.3591 29.6877L27.7322 12.1289L28.1946 11.1567ZM22.0437 27.7465L38.5961 11.1586H29.9532L22.0437 27.7465ZM38.7042 9.63147L29.9291 0H21.1059L29.8039 9.63147H38.7042Z" fill="#FFE03C"/>
</svg>
