<svg width="15" height="12" viewBox="0 0 15 12" fill="none" xmlns="http://www.w3.org/2000/svg">
<path d="M6.36406 0.361772L6.67015 2.43287e-05H3.32425L0 3.89317H3.37379L6.36406 0.361772ZM4.17474 3.89344H10.494L8.77602 1.86385L7.33474 0.161291L5.15663 2.73352L4.17474 3.89344ZM0.0404298 4.5102L6.32289 11.2251L3.31853 4.5102H0.0404298ZM10.6843 4.50969H10.1368L7.8348 4.5102H3.98441L7.31465 11.9528L7.33605 12.0002L10.5091 4.90266L10.6843 4.50969ZM8.35341 11.2155L14.626 4.51046H11.3507L8.35341 11.2155ZM14.6669 3.89317L11.3416 0H7.99803L11.2941 3.89317H14.6669Z" fill="black"/>
</svg>
