<svg width="177" height="29" viewBox="0 0 177 29" fill="none" xmlns="http://www.w3.org/2000/svg">
<path d="M14.482 0L17.7333 10.0193H28.255L19.7428 16.2115L22.9943 26.2308L14.482 20.0385L5.96981 26.2308L9.22118 16.2115L0.708984 10.0193H11.2306L14.482 0Z" fill="#FFD600"/>
<path d="M51.4908 0L54.7421 10.0193H65.2638L56.7516 16.2115L60.003 26.2308L51.4908 20.0385L42.9785 26.2308L46.23 16.2115L37.7178 10.0193H48.2395L51.4908 0Z" fill="#FFD600"/>
<path d="M88.5001 0L91.7514 10.0193H102.273L93.7608 16.2115L97.0123 26.2308L88.5001 20.0385L79.9878 26.2308L83.2393 16.2115L74.7271 10.0193H85.2487L88.5001 0Z" fill="#FFD600"/>
<path d="M125.509 0L128.76 10.0193H139.282L130.77 16.2115L134.021 26.2308L125.509 20.0385L116.997 26.2308L120.248 16.2115L111.736 10.0193H122.258L125.509 0Z" fill="#FFD600"/>
<path d="M162.518 0L165.77 10.0193H176.292L167.778 16.2115L171.03 26.2308L162.518 20.0385L154.006 26.2308L157.257 16.2115L148.745 10.0193H159.267L162.518 0Z" fill="#FFD600"/>
</svg>
