<svg width="110" height="18" viewBox="0 0 110 18" fill="none" xmlns="http://www.w3.org/2000/svg">
<path d="M9 0L11.0206 6.21885H17.5595L12.2694 10.0623L14.2901 16.2812L9 12.4377L3.70993 16.2812L5.73056 10.0623L0.440492 6.21885H6.97937L9 0Z" fill="#FFD600"/>
<path d="M32 0L34.0206 6.21885H40.5595L35.2694 10.0623L37.2901 16.2812L32 12.4377L26.7099 16.2812L28.7306 10.0623L23.4405 6.21885H29.9794L32 0Z" fill="#FFD600"/>
<path d="M55 0L57.0206 6.21885H63.5595L58.2694 10.0623L60.2901 16.2812L55 12.4377L49.7099 16.2812L51.7306 10.0623L46.4405 6.21885H52.9794L55 0Z" fill="#FFD600"/>
<path d="M78 0L80.0206 6.21885H86.5595L81.2694 10.0623L83.2901 16.2812L78 12.4377L72.7099 16.2812L74.7306 10.0623L69.4405 6.21885H75.9794L78 0Z" fill="#FFD600"/>
<path d="M101 0L103.021 6.21885H109.56L104.269 10.0623L106.29 16.2812L101 12.4377L95.7099 16.2812L97.7306 10.0623L92.4405 6.21885H98.9794L101 0Z" fill="#FFD600"/>
</svg>
