<svg width="22" height="22" viewBox="0 0 22 22" fill="none" xmlns="http://www.w3.org/2000/svg">
<g clip-path="url(#clip0_324_7146)">
<path d="M11.3301 0C11.3851 4.45958 11.6922 6.96667 13.3651 8.635C15.038 10.3079 17.5451 10.6104 22.0047 10.67C21.8305 4.85375 17.1463 0.169583 11.3301 0Z" fill="black"/>
<path d="M8.63958 8.635C10.3125 6.96667 10.615 4.45958 10.67 0C4.85375 0.169583 0.169583 4.85375 0 10.67C4.45958 10.615 6.96667 10.3079 8.63958 8.635Z" fill="black"/>
<path d="M-0.000299479 11.3301C0.169284 17.1463 4.85345 21.8305 10.6697 22.0001C10.6147 17.5405 10.3076 15.0334 8.6347 13.3651C6.96178 11.6922 4.4547 11.3897 -0.00488281 11.3301H-0.000299479Z" fill="black"/>
<path d="M21.9997 11.3301C17.5401 11.3851 15.033 11.6922 13.3601 13.3651C11.6872 15.038 11.3847 17.5451 11.3251 22.0001C17.1414 21.8305 21.8255 17.1463 21.9951 11.3301H21.9997Z" fill="black"/>
<path fill-rule="evenodd" clip-rule="evenodd" d="M22 11C22 11.11 22 11.22 21.9954 11.33C17.5404 11.385 15.0333 11.6921 13.365 13.365C11.6921 15.0379 11.3896 17.5404 11.33 21.9954C11.22 21.9954 11.11 22 11 22C10.89 22 10.78 22 10.67 21.9954C10.615 17.5404 10.3079 15.0333 8.635 13.365C6.96667 11.6921 4.45958 11.385 0.00458333 11.33C0.00458333 11.22 0 11.11 0 11C0 10.89 0 10.78 0.00458333 10.67C4.45958 10.615 6.96667 10.3079 8.635 8.635C10.3079 6.96667 10.615 4.45958 10.67 0.00458333C10.78 0.00458333 10.89 0 11 0C11.11 0 11.22 0 11.33 0.00458333C11.385 4.45958 11.6921 6.96667 13.365 8.635C15.0379 10.3079 17.5404 10.6104 21.9954 10.67C21.9954 10.78 22 10.89 22 11Z" fill="white"/>
</g>
<defs>
<clipPath id="clip0_324_7146">
<rect width="22" height="22" fill="white"/>
</clipPath>
</defs>
</svg>
