<svg width="70" height="22" viewBox="0 0 70 22" fill="none" xmlns="http://www.w3.org/2000/svg">
<path d="M31.56 19.92V16.648C31.9813 16.648 32.3227 16.5413 32.584 16.328C32.8507 16.1147 33.0587 15.8267 33.208 15.464C33.3573 15.096 33.4693 14.6827 33.544 14.224C33.624 13.7653 33.688 13.2907 33.736 12.8C33.8053 12.1067 33.8613 11.4347 33.904 10.784C33.952 10.1333 33.9947 9.45867 34.032 8.76C34.0693 8.06133 34.112 7.29867 34.16 6.472L41.4 6.48V16.648H42.24V19.92H40.816V18H32.984V19.92H31.56ZM34.056 16.648H39.976V7.832L35.48 7.824C35.448 8.44267 35.416 9.03733 35.384 9.608C35.3573 10.1733 35.3227 10.744 35.28 11.32C35.2373 11.896 35.184 12.5067 35.12 13.152C35.0613 13.7493 34.9947 14.2667 34.92 14.704C34.8507 15.136 34.7493 15.5093 34.616 15.824C34.4827 16.1333 34.296 16.408 34.056 16.648ZM46.771 18.24C45.9177 18.24 45.163 18.056 44.507 17.688C43.851 17.3147 43.3337 16.8027 42.955 16.152L44.091 15.416C44.4057 15.8907 44.7817 16.256 45.219 16.512C45.6563 16.7627 46.155 16.888 46.715 16.888C47.3017 16.888 47.7683 16.7547 48.115 16.488C48.4617 16.216 48.635 15.8507 48.635 15.392C48.635 15.0507 48.5497 14.7893 48.379 14.608C48.2083 14.4267 47.963 14.3013 47.643 14.232C47.323 14.1627 46.9417 14.128 46.499 14.128H45.603V12.952H46.491C47.051 12.952 47.507 12.8613 47.859 12.68C48.211 12.4987 48.387 12.1893 48.387 11.752C48.387 11.304 48.2217 10.9787 47.891 10.776C47.5657 10.568 47.1763 10.464 46.723 10.464C46.243 10.464 45.7843 10.5653 45.347 10.768C44.9097 10.9653 44.5337 11.216 44.219 11.52L43.355 10.552C43.803 10.0933 44.3177 9.74133 44.899 9.496C45.4857 9.24533 46.123 9.12 46.811 9.12C47.3657 9.12 47.8723 9.21867 48.331 9.416C48.795 9.608 49.163 9.89333 49.435 10.272C49.7123 10.6453 49.851 11.1013 49.851 11.64C49.851 12.0987 49.7443 12.5067 49.531 12.864C49.3177 13.2213 49.003 13.5333 48.587 13.8L48.531 13.296C48.883 13.3813 49.1737 13.5387 49.403 13.768C49.6377 13.992 49.811 14.2587 49.923 14.568C50.035 14.8773 50.091 15.2 50.091 15.536C50.091 16.1013 49.9417 16.5867 49.643 16.992C49.3497 17.392 48.9523 17.7013 48.451 17.92C47.9497 18.1333 47.3897 18.24 46.771 18.24ZM55.2709 18.24C54.4229 18.24 53.6815 18.0533 53.0469 17.68C52.4175 17.3013 51.9269 16.776 51.5749 16.104C51.2229 15.4267 51.0469 14.6373 51.0469 13.736C51.0469 12.792 51.2202 11.976 51.5669 11.288C51.9135 10.5947 52.3962 10.0613 53.0149 9.688C53.6389 9.30933 54.3695 9.12 55.2069 9.12C56.0762 9.12 56.8149 9.32 57.4229 9.72C58.0362 10.12 58.4949 10.6907 58.7989 11.432C59.1082 12.1733 59.2415 13.056 59.1989 14.08H57.7589V13.568C57.7429 12.5067 57.5269 11.7147 57.1109 11.192C56.6949 10.664 56.0762 10.4 55.2549 10.4C54.3749 10.4 53.7055 10.6827 53.2469 11.248C52.7882 11.8133 52.5589 12.624 52.5589 13.68C52.5589 14.6987 52.7882 15.488 53.2469 16.048C53.7055 16.608 54.3589 16.888 55.2069 16.888C55.7775 16.888 56.2735 16.7573 56.6949 16.496C57.1162 16.2347 57.4469 15.8587 57.6869 15.368L59.0549 15.84C58.7189 16.6027 58.2122 17.1947 57.5349 17.616C56.8629 18.032 56.1082 18.24 55.2709 18.24ZM52.0789 14.08V12.936H58.4629V14.08H52.0789ZM60.652 18V9.36H62.076V13H66.62V9.36H68.044V18H66.62V14.352H62.076V18H60.652Z" fill="black"/>
<path d="M31 19H69.164V19.4H31V19Z" fill="black"/>
<g clip-path="url(#clip0_2004_14)">
<path d="M11.3301 0C11.3851 4.45958 11.6922 6.96667 13.3651 8.635C15.038 10.3079 17.5451 10.6104 22.0047 10.67C21.8305 4.85375 17.1463 0.169583 11.3301 0Z" fill="black"/>
<path d="M8.63958 8.635C10.3125 6.96667 10.615 4.45958 10.67 0C4.85375 0.169583 0.169583 4.85375 0 10.67C4.45958 10.615 6.96667 10.3079 8.63958 8.635Z" fill="black"/>
<path d="M-0.000299479 11.3301C0.169284 17.1463 4.85345 21.8305 10.6697 22.0001C10.6147 17.5405 10.3076 15.0334 8.6347 13.3651C6.96178 11.6922 4.4547 11.3897 -0.00488281 11.3301H-0.000299479Z" fill="black"/>
<path d="M21.9997 11.3301C17.5401 11.3851 15.033 11.6922 13.3601 13.3651C11.6872 15.038 11.3847 17.5451 11.3251 22.0001C17.1414 21.8305 21.8255 17.1463 21.9951 11.3301H21.9997Z" fill="black"/>
<path fill-rule="evenodd" clip-rule="evenodd" d="M22 11C22 11.11 22 11.22 21.9954 11.33C17.5404 11.385 15.0333 11.6921 13.365 13.365C11.6921 15.0379 11.3896 17.5404 11.33 21.9954C11.22 21.9954 11.11 22 11 22C10.89 22 10.78 22 10.67 21.9954C10.615 17.5404 10.3079 15.0333 8.635 13.365C6.96667 11.6921 4.45958 11.385 0.00458333 11.33C0.00458333 11.22 0 11.11 0 11C0 10.89 0 10.78 0.00458333 10.67C4.45958 10.615 6.96667 10.3079 8.635 8.635C10.3079 6.96667 10.615 4.45958 10.67 0.00458333C10.78 0.00458333 10.89 0 11 0C11.11 0 11.22 0 11.33 0.00458333C11.385 4.45958 11.6921 6.96667 13.365 8.635C15.0379 10.3079 17.5404 10.6104 21.9954 10.67C21.9954 10.78 22 10.89 22 11Z" fill="white"/>
</g>
<defs>
<clipPath id="clip0_2004_14">
<rect width="22" height="22" fill="white"/>
</clipPath>
</defs>
</svg>
