<svg width="52" height="28" viewBox="0 0 52 28" fill="none" xmlns="http://www.w3.org/2000/svg">
<g clip-path="url(#clip0_2007_21)">
<path fill-rule="evenodd" clip-rule="evenodd" d="M52 11.592C52 5.194 46.8611 0 40.5 0C34.1528 0 29 5.194 29 11.592C29 14.798 30.2917 17.696 32.375 19.782C32.5417 19.95 32.7778 20.062 33.0278 20.062C33.5417 20.062 33.9583 19.642 33.9583 19.124C33.9583 18.858 33.8611 18.62 33.6806 18.438C31.9444 16.688 30.875 14.252 30.875 11.592C30.875 6.244 35.1806 1.876 40.4861 1.876C45.7917 1.876 50.125 6.23 50.125 11.592C50.125 14.28 49.0556 16.702 47.3056 18.466L39.1806 26.656L40.5 28L48.6528 19.782C50.7222 17.696 52 14.798 52 11.592Z" fill="#B5208E"/>
<path fill-rule="evenodd" clip-rule="evenodd" d="M45.8337 13.8319L42.9587 6.52393L40.5421 10.7939L38.1115 6.52393L35.2504 13.8319H34.4171V14.9239H38.7365V13.8319H38.0976L38.7226 12.0119L40.5421 15.0079L42.3615 12.0119L42.9865 13.8319H42.3337V14.9239H46.6809V13.8319H45.8337Z" fill="#B5208E"/>
</g>
<g clip-path="url(#clip1_2007_21)">
<path fill-rule="evenodd" clip-rule="evenodd" d="M23 11.592C23 5.194 17.8611 0 11.5 0C5.15278 0 0 5.194 0 11.592C0 14.798 1.29167 17.696 3.375 19.782C3.54167 19.95 3.77778 20.062 4.02778 20.062C4.54167 20.062 4.95833 19.642 4.95833 19.124C4.95833 18.858 4.86111 18.62 4.68056 18.438C2.94444 16.688 1.875 14.252 1.875 11.592C1.875 6.244 6.18055 1.876 11.4861 1.876C16.7917 1.876 21.125 6.23 21.125 11.592C21.125 14.28 20.0556 16.702 18.3056 18.466L10.1806 26.656L11.5 28L19.6528 19.782C21.7222 17.696 23 14.798 23 11.592Z" fill="#FFA83D"/>
<path fill-rule="evenodd" clip-rule="evenodd" d="M16.8337 13.8319L13.9587 6.52393L11.5421 10.7939L9.1115 6.52393L6.25039 13.8319H5.41705V14.9239H9.7365V13.8319H9.09761L9.72261 12.0119L11.5421 15.0079L13.3615 12.0119L13.9865 13.8319H13.3337V14.9239H17.6809V13.8319H16.8337Z" fill="#FFA83D"/>
</g>
<defs>
<clipPath id="clip0_2007_21">
<rect width="23" height="28" fill="white" transform="translate(29)"/>
</clipPath>
<clipPath id="clip1_2007_21">
<rect width="23" height="28" fill="white"/>
</clipPath>
</defs>
</svg>
