<svg width="27" height="27" viewBox="0 0 27 27" fill="none" xmlns="http://www.w3.org/2000/svg">
<circle cx="13.5" cy="13.5" r="13" stroke="#D9D9D9"/>
<path fill-rule="evenodd" clip-rule="evenodd" d="M8.7104 9C8.48795 9 8.30762 9.17358 8.30762 9.38769C8.30762 9.60181 8.48795 9.77538 8.7104 9.77538C9.1492 9.77538 9.52912 10.0687 9.6243 10.481L9.8552 11.4811C9.85687 11.5054 9.86094 11.5297 9.86746 11.5536L9.89697 11.662L9.92835 11.7979C9.93452 11.8247 9.94342 11.8501 9.9547 11.8741L10.8543 15.1792C11.1483 16.2592 12.1622 17.0123 13.322 17.0123H16.0951C17.504 17.0123 18.6461 15.913 18.6461 14.5569V13.1564C18.6461 12.8649 18.6024 12.5133 18.3969 12.203C17.9346 11.5048 17.1281 11.0677 16.2459 11.0677H10.585L10.4107 10.3128C10.2336 9.54575 9.52677 9 8.7104 9ZM11.6336 14.9827L10.779 11.8431H16.2459C16.8493 11.8431 17.4013 12.142 17.7176 12.6197C17.8031 12.7489 17.8405 12.9268 17.8405 13.1564V14.5569C17.8405 15.4848 17.0591 16.2369 16.0951 16.2369H13.322C12.5284 16.2369 11.8347 15.7216 11.6336 14.9827Z" fill="#595858"/>
<path d="M16.2291 18.6923C16.5257 18.6923 16.7661 18.4609 16.7661 18.1754C16.7661 17.8899 16.5257 17.6585 16.2291 17.6585C15.9324 17.6585 15.692 17.8899 15.692 18.1754C15.692 18.4609 15.9324 18.6923 16.2291 18.6923Z" fill="#595858"/>
<path d="M12.4697 18.1754C12.4697 18.4609 12.2293 18.6923 11.9327 18.6923C11.6361 18.6923 11.3956 18.4609 11.3956 18.1754C11.3956 17.8899 11.6361 17.6585 11.9327 17.6585C12.2293 17.6585 12.4697 17.8899 12.4697 18.1754Z" fill="#595858"/>
</svg>
