<svg width="27" height="27" viewBox="0 0 27 27" fill="none" xmlns="http://www.w3.org/2000/svg">
<path fill-rule="evenodd" clip-rule="evenodd" d="M13.3522 18.5641C13.6607 18.735 14.0315 18.735 14.34 18.5641C15.5751 17.8798 18.7378 15.9401 19.2785 13.7518C19.7666 11.7758 18.5277 9.72268 16.4297 9.69318C16.3864 9.69257 16.3425 9.69226 16.2979 9.69226C15.4533 9.69226 14.6993 10.0955 14.2573 10.3936C14.0158 10.5565 13.6764 10.5565 13.4349 10.3936C12.9929 10.0955 12.2389 9.69226 11.3943 9.69226C11.3497 9.69226 11.3058 9.69257 11.2624 9.69318C9.16446 9.72268 7.92553 11.7758 8.41369 13.7518C8.95431 15.9401 12.117 17.8798 13.3522 18.5641ZM18.4699 13.5693C18.262 14.4108 17.5065 15.3043 16.5237 16.1234C15.5676 16.9202 14.5189 17.5471 13.9234 17.877C13.8725 17.9052 13.8196 17.9052 13.7688 17.877C13.1732 17.5471 12.1245 16.9202 11.1685 16.1234C10.1856 15.3043 9.43013 14.4108 9.22222 13.5693C8.81682 11.9283 9.86611 10.507 11.2747 10.4872C11.3139 10.4867 11.3537 10.4864 11.3943 10.4864C11.982 10.4864 12.5628 10.7773 12.956 11.0425C13.4846 11.399 14.2075 11.399 14.7362 11.0425C15.1294 10.7773 15.7101 10.4864 16.2979 10.4864C16.3384 10.4864 16.3783 10.4867 16.4175 10.4872C17.826 10.507 18.8753 11.9283 18.4699 13.5693Z" fill="#595858"/>
<circle cx="13.5" cy="13.5" r="13" stroke="#D9D9D9"/>
</svg>
