<svg width="35" height="34" viewBox="0 0 35 34" fill="none" xmlns="http://www.w3.org/2000/svg">
<circle cx="17.5967" cy="17" r="16.5" stroke="#D9D9D9"/>
<path fill-rule="evenodd" clip-rule="evenodd" d="M11.5192 13.0067L12.1278 11.7856C12.5602 10.9182 13.7126 10.7306 14.3962 11.4164L16.012 13.0373C16.4431 13.4697 16.55 14.1304 16.2773 14.6774L16.0913 15.0506C15.7919 15.6512 15.7869 16.3619 16.1357 16.935C16.4088 17.3836 16.7584 17.8989 17.1066 18.2481C17.4066 18.5491 17.8296 18.8512 18.2271 19.1043C18.8932 19.5284 19.7429 19.4485 20.3784 18.9794C20.945 18.5612 21.7331 18.6299 22.2194 19.1399L23.607 20.5954C24.266 21.2867 24.0696 22.4205 23.2168 22.8482L21.9589 23.4792C20.9812 23.9695 19.8736 24.1778 18.8402 23.8205C17.599 23.3913 15.8201 22.5331 14.1412 20.8489C12.4623 19.1647 11.6068 17.3803 11.1789 16.1352C10.8227 15.0986 11.0304 13.9874 11.5192 13.0067ZM12.4693 13.4833L13.0779 12.2622C13.186 12.0453 13.4741 11.9984 13.645 12.1699L15.2609 13.7908C15.3687 13.8989 15.3954 14.0641 15.3272 14.2008L15.1412 14.5741C14.6981 15.463 14.6673 16.5672 15.2291 17.4902C15.5115 17.9542 15.9144 18.5591 16.3555 19.0016C16.739 19.3864 17.2406 19.7383 17.6578 20.004C18.7412 20.6938 20.0671 20.5322 21.0079 19.8377C21.1445 19.7369 21.3345 19.7535 21.4517 19.8764L22.8393 21.3319C23.0041 21.5047 22.955 21.7882 22.7418 21.8951L21.4838 22.5261C20.6684 22.935 19.8652 23.0478 19.1864 22.8131C18.0597 22.4235 16.4319 21.6399 14.8923 20.0954C13.3527 18.551 12.5716 16.9181 12.1832 15.7879C11.9492 15.107 12.0616 14.3012 12.4693 13.4833Z" fill="#595858"/>
</svg>
