<svg width="27" height="27" viewBox="0 0 27 27" fill="none" xmlns="http://www.w3.org/2000/svg">
<circle cx="13.5" cy="13.5" r="13" stroke="#D9D9D9"/>
<path fill-rule="evenodd" clip-rule="evenodd" d="M16.6153 11.5962C16.6153 13.03 15.3755 14.1923 13.8461 14.1923C12.3166 14.1923 11.0768 13.03 11.0768 11.5962C11.0768 10.1623 12.3166 9 13.8461 9C15.3755 9 16.6153 10.1623 16.6153 11.5962ZM15.7845 11.5962C15.7845 12.5998 14.9166 13.4135 13.8461 13.4135C12.7755 13.4135 11.9076 12.5998 11.9076 11.5962C11.9076 10.5925 12.7755 9.77885 13.8461 9.77885C14.9166 9.77885 15.7845 10.5925 15.7845 11.5962Z" fill="#595858"/>
<path fill-rule="evenodd" clip-rule="evenodd" d="M18.2768 17.0481C18.2768 18.3385 16.2931 19.3846 13.8461 19.3846C11.399 19.3846 9.41528 18.3385 9.41528 17.0481C9.41528 15.7576 11.399 14.7115 13.8461 14.7115C16.2931 14.7115 18.2768 15.7576 18.2768 17.0481ZM17.4461 17.0481C17.4461 17.2869 17.2537 17.6618 16.5718 18.0214C15.9159 18.3673 14.9539 18.6058 13.8461 18.6058C12.7382 18.6058 11.7762 18.3673 11.1203 18.0214C10.4384 17.6618 10.2461 17.2869 10.2461 17.0481C10.2461 16.8092 10.4384 16.4343 11.1203 16.0747C11.7762 15.7289 12.7382 15.4904 13.8461 15.4904C14.9539 15.4904 15.9159 15.7289 16.5718 16.0747C17.2537 16.4343 17.4461 16.8092 17.4461 17.0481Z" fill="#595858"/>
</svg>
