<svg width="45" height="45" viewBox="0 0 45 45" fill="none" xmlns="http://www.w3.org/2000/svg">
<rect width="45" height="45" rx="22.5" fill="#F3F3F3"/>
<path d="M17.0977 12.9378V14.9292C17.3065 14.9026 17.5214 14.9008 17.739 14.9264L18.1993 14.9807C18.9773 15.0724 19.7558 14.8122 20.3328 14.2675L20.6742 13.9453C21.7072 12.9702 23.2935 12.9702 24.3265 13.9453L24.6678 14.2675C25.2449 14.8122 26.0233 15.0724 26.8014 14.9807L27.2616 14.9264C27.4791 14.9008 27.6939 14.9026 27.9026 14.9292V12.9378C27.9026 10.7567 25.6716 9.33813 23.7755 10.3135C22.9726 10.7265 22.0277 10.7265 21.2248 10.3135C19.3287 9.33813 17.0977 10.7567 17.0977 12.9378Z" fill="#363538"/>
<path fill-rule="evenodd" clip-rule="evenodd" d="M20.694 15.4533C21.7156 14.489 23.2844 14.489 24.306 15.4533C24.8767 15.992 25.6465 16.2494 26.416 16.1587C27.7934 15.9963 29.0626 16.945 29.3381 18.3429C29.4921 19.1239 29.9679 19.7976 30.6422 20.1896C31.8493 20.8912 32.3341 22.4262 31.7584 23.7238C31.4367 24.4487 31.4367 25.2815 31.7584 26.0063C32.3341 27.3039 31.8493 28.8389 30.6422 29.5405C29.9679 29.9325 29.4921 30.6062 29.3381 31.3872C29.0626 32.7851 27.7934 33.7338 26.416 33.5714C25.6465 33.4807 24.8767 33.7381 24.306 34.2768C23.2844 35.2411 21.7156 35.2411 20.694 34.2768C20.1233 33.7381 19.3535 33.4807 18.584 33.5714C17.2066 33.7338 15.9374 32.7851 15.6619 31.3872C15.5079 30.6062 15.0321 29.9325 14.3578 29.5405C13.1507 28.8389 12.6659 27.3039 13.2416 26.0063C13.5633 25.2815 13.5633 24.4487 13.2416 23.7238C12.6659 22.4262 13.1507 20.8912 14.3578 20.1896C15.0321 19.7976 15.5079 19.1239 15.6619 18.3429C15.9374 16.945 17.2066 15.9963 18.584 16.1587C19.3535 16.2494 20.1233 15.992 20.694 15.4533ZM23.903 20.6964C24.0521 20.6964 24.1731 20.8208 24.1731 20.9743V28.5032C24.1731 28.6566 24.0521 28.7811 23.903 28.7811H22.5477C22.3985 28.7811 22.2776 28.6566 22.2776 28.5032V22.5572C22.2776 22.5367 22.2615 22.5202 22.2417 22.5202C22.2351 22.5202 22.2286 22.5221 22.2229 22.5256L20.8852 23.367C20.7052 23.4802 20.4742 23.3469 20.4742 23.1299V22.0904C20.4742 21.9943 20.5224 21.9051 20.6017 21.8544L22.3464 20.7383C22.3892 20.7109 22.4386 20.6964 22.489 20.6964H23.903Z" fill="#363538"/>
</svg>
