<svg width="45" height="45" viewBox="0 0 45 45" fill="none" xmlns="http://www.w3.org/2000/svg">
<rect width="45" height="45" rx="22.5" fill="#F3F3F3"/>
<path d="M23.5202 24.137C23.3241 24.2823 23.1491 24.4528 23 24.6439C22.8509 24.4528 22.6758 24.2823 22.4797 24.137C22.6758 23.9917 22.8509 23.8211 23 23.63C23.1491 23.8211 23.3241 23.9917 23.5202 24.137Z" fill="#363538"/>
<path fill-rule="evenodd" clip-rule="evenodd" d="M12.0614 22.1619L14.7307 30.1881C14.9095 30.7257 15.4587 31.061 16.0341 30.9907C17.6154 30.7977 20.7539 30.453 23 30.453C25.2461 30.453 28.3846 30.7977 29.9659 30.9907C30.5413 31.061 31.0905 30.7257 31.2693 30.1881L33.9386 22.1619C34.2811 21.132 33.1211 20.2445 32.1757 20.8131L29.4303 22.464C28.8289 22.8257 28.0384 22.602 27.7294 21.9826L24.0739 14.6548C23.6383 13.7817 22.3617 13.7817 21.9261 14.6548L18.2706 21.9826C17.9616 22.602 17.1711 22.8257 16.5697 22.464L13.8243 20.8131C12.8789 20.2445 11.7189 21.132 12.0614 22.1619ZM22.1235 21.2412C22.4245 20.4483 23.5754 20.4483 23.8765 21.2412L24.2932 22.3387C24.3879 22.588 24.5896 22.7845 24.8454 22.8768L25.9717 23.2829C26.7854 23.5763 26.7854 24.6977 25.9717 24.9911L24.8454 25.3972C24.5896 25.4894 24.3879 25.686 24.2932 25.9352L23.8765 27.0328C23.5754 27.8256 22.4245 27.8256 22.1235 27.0328L21.7067 25.9352C21.612 25.686 21.4103 25.4894 21.1545 25.3972L20.0282 24.9911C19.2145 24.6977 19.2145 23.5763 20.0282 23.2829L21.1545 22.8768C21.4103 22.7845 21.612 22.588 21.7067 22.3387L22.1235 21.2412Z" fill="#363538"/>
</svg>
