<svg width="45" height="45" viewBox="0 0 45 45" fill="none" xmlns="http://www.w3.org/2000/svg">
<rect width="45" height="45" rx="22.5" fill="#F3F3F3"/>
<path fill-rule="evenodd" clip-rule="evenodd" d="M33.9992 14.6375C33.9769 12.6269 32.4032 11.04 30.3942 11.0022C27.7438 10.9524 23.9805 11.7367 19.8186 14.4614C19.447 14.2697 19.027 14.1561 18.599 14.1025C17.8898 14.0136 17.0796 14.0775 16.2281 14.2899C14.5336 14.7127 12.5909 15.7437 10.7836 17.525C10.3834 17.8463 10.1006 18.3235 10.0218 18.8342C9.93424 19.4013 10.1014 20.0608 10.6921 20.4984C11.2347 20.9004 11.9765 20.9946 12.8005 20.8924L12.8503 20.886C12.4277 21.5127 12.1343 22.139 12.1274 22.7453C12.1235 23.0841 12.2096 23.4128 12.4012 23.7013C12.5876 23.9819 12.8393 24.1731 13.0895 24.3036C13.5645 24.5514 14.1491 24.6392 14.6802 24.6752C15.3982 24.7238 16.2909 24.6851 17.1178 24.6492C17.5006 24.6326 17.8695 24.6166 18.2003 24.6102C18.7615 24.5993 19.2366 24.6123 19.6054 24.6682C19.9924 24.7269 20.1084 24.8121 20.1153 24.8172C20.1202 24.8241 20.2041 24.9401 20.2598 25.3281C20.3128 25.6976 20.3222 26.1731 20.307 26.7345C20.298 27.0655 20.2792 27.4345 20.2597 27.8175C20.2175 28.6446 20.1719 29.5375 20.215 30.2563C20.2469 30.7881 20.3301 31.3738 20.5741 31.851C20.7026 32.1023 20.8917 32.3556 21.1707 32.5443C21.4576 32.7382 21.7854 32.8269 22.1239 32.8256C22.737 32.8233 23.3728 32.5278 24.0097 32.1018C24.0057 32.1294 24.0019 32.1569 23.9983 32.1841C23.8898 33.0078 23.9782 33.7508 24.3758 34.2968C24.8086 34.8913 25.4663 35.0636 26.0337 34.9803C26.5447 34.9054 27.0237 34.6261 27.3478 34.2281C29.1418 32.4334 30.1871 30.4973 30.6225 28.805C30.8414 27.9546 30.9115 27.1444 30.8281 26.434C30.7766 25.9957 30.6625 25.5653 30.466 25.1859C33.2156 21.0471 34.0287 17.2918 33.9992 14.6375ZM16.6661 16.0481C17.1065 15.9382 17.5049 15.8855 17.8515 15.8768C16.9562 16.5803 16.0487 17.3764 15.1353 18.2751C13.9768 18.7922 13.1467 19.0236 12.5777 19.0942C12.1375 19.1488 11.9159 19.1006 11.8237 19.0673C11.8424 19.0201 11.8785 18.9668 11.9225 18.9339C11.9568 18.9084 11.9892 18.8805 12.0195 18.8504C13.6289 17.2525 15.3053 16.3876 16.6661 16.0481ZM25.7936 32.4208C25.8684 31.852 26.106 31.0232 26.6317 29.8678C27.5368 28.9608 28.3393 28.0588 29.0492 27.1684C29.0379 27.5151 28.9821 27.9134 28.869 28.3532C28.5192 29.7122 27.642 31.3831 26.0329 32.9812C26.0026 33.0113 25.9744 33.0435 25.9487 33.0776C25.9155 33.1215 25.862 33.1572 25.8146 33.1755C25.7821 33.0829 25.7356 32.8609 25.7936 32.4208ZM25.8993 19.0729C26.8385 20.02 28.3672 20.0259 29.3136 19.086C30.2601 18.1462 30.266 16.6165 29.3268 15.6694C28.3875 14.7223 26.8588 14.7164 25.9124 15.6562C24.9659 16.5961 24.96 18.1258 25.8993 19.0729Z" fill="#363538"/>
<path d="M16.8192 25.2469C18.3883 25.2529 19.6555 26.5307 19.6495 28.1009C19.6445 29.383 18.7827 30.5032 17.5453 30.8357L15.9851 31.2551C14.5518 31.6404 13.243 30.3206 13.639 28.8893L14.07 27.3314C14.4119 26.0957 15.5379 25.242 16.8192 25.2469Z" fill="#363538"/>
</svg>
